<svg xmlns="http://www.w3.org/2000/svg" xmlns:xlink="http://www.w3.org/1999/xlink" viewBox="0 0 294.42 389.02"><defs><style>.cls-1{fill:url(#未命名的渐变_8);}.cls-2,.cls-3,.cls-4,.cls-5,.cls-6{fill:none;stroke-miterlimit:10;}.cls-2{stroke:url(#未命名的渐变_8-2);}.cls-3{stroke:url(#未命名的渐变_8-3);}.cls-4{stroke:url(#未命名的渐变_8-4);}.cls-5{stroke-width:9px;stroke:url(#未命名的渐变_8-5);}.cls-6{stroke-width:6px;stroke:url(#未命名的渐变_8-6);}</style><linearGradient id="未命名的渐变_8" x1="144.7" y1="236.48" x2="160.83" y2="367.84" gradientUnits="userSpaceOnUse"><stop offset="0" stop-color="#00a0e9"/><stop offset="1" stop-color="#1d2088"/></linearGradient><linearGradient id="未命名的渐变_8-2" x1="227.02" y1="180.36" x2="233.43" y2="190.65" xlink:href="#未命名的渐变_8"/><linearGradient id="未命名的渐变_8-3" x1="270.63" y1="98.13" x2="275.2" y2="105.46" gradientTransform="translate(90.08 418.02) rotate(-85)" xlink:href="#未命名的渐变_8"/><linearGradient id="未命名的渐变_8-4" x1="334.23" y1="108.7" x2="337.51" y2="113.96" gradientTransform="translate(416.2 433.3) rotate(-139.25)" xlink:href="#未命名的渐变_8"/><linearGradient id="未命名的渐变_8-5" x1="-0.37" y1="-118.05" x2="-55.41" y2="262.89" gradientTransform="translate(137.61 120.4) rotate(-20.22)" xlink:href="#未命名的渐变_8"/><linearGradient id="未命名的渐变_8-6" x1="-326.04" y1="-320.07" x2="-249.2" y2="-196.76" gradientTransform="translate(503.23 -1.36) rotate(-67.88)" xlink:href="#未命名的渐变_8"/></defs><title>资源 12</title><g id="图层_2" data-name="图层 2"><g id="图层_1-2" data-name="图层 1"><path class="cls-1" d="M224.72,249.84c-27.05-20.43-67.86-11.63-82.61,0s-32.4,24.86-71.72,15.56c-11.41-2.71-29.22-7.86-48.74-13.81,1,64.72,56.86,116.9,125.66,116.9,66.88,0,121.54-49.31,125.46-111.51C261,263,247.13,266.75,224.72,249.84Z"/><path class="cls-2" d="M234.38,188.27a5.12,5.12,0,0,1-9.64-3.4c.89-2.53,5.82-7.11,7.73-6.55C234.54,178.92,235.27,185.74,234.38,188.27Z"/><path class="cls-3" d="M217.42,152.34a3.52,3.52,0,0,1-2.91,6.39c-1.67-.76-4.51-4.4-4-5.68S215.74,151.58,217.42,152.34Z"/><path class="cls-4" d="M233.79,127.48a2.39,2.39,0,0,1,2.37,4.15c-1.08.62-4.22.74-4.73,0S232.7,128.11,233.79,127.48Z"/><path class="cls-5" d="M289.91,247c1,74.89-62,136.48-140.84,137.55S5.53,325.75,4.51,250.86,88.42,8.51,143.86,4.58C204,.32,288.88,172.07,289.91,247Z"/><path class="cls-6" d="M187.68,124.4c-7.79-1.33-14.85-.07-19.3,2.53l-.54-.44c-10.75-8.84-50.18-.43-65.51,13.58l-.3-.39c-3.75-5-9.21-6.84-14.79-6.76a31.85,31.85,0,0,0,4.29,30.6c-7.62,28.94-.14,47.37,15.43,48.95.56,5.19,2.74,9,5.84,9.49,4,.59,8.1-4.56,9.74-11.81l.11,0A56.22,56.22,0,0,1,124,203,92.81,92.81,0,0,1,128,190.59c0-.45.06-.9.1-1.35,5.49-.54,9.31-4.59,12.46-9.65a14.32,14.32,0,0,0,2.14-5.46,24,24,0,0,1-7.88-.63,15.22,15.22,0,0,1-3-1.1c7.25-19.3,22.83-32.2,38.76-35.16a36.6,36.6,0,0,1,4.94,3.15,58.43,58.43,0,0,1,5.13,4.2,9.93,9.93,0,0,1-.39-4.92c1.4-7.89,12.31-12.57,24.47-10.57C200.84,127.17,195.12,125.67,187.68,124.4Z"/></g></g></svg>