<svg xmlns="http://www.w3.org/2000/svg" viewBox="0 0 216.41 211.46"><defs><style>.cls-1,.cls-2{fill:none;stroke:#fff;stroke-miterlimit:10;}.cls-1{stroke-width:6px;}</style></defs><title>资源 15</title><g id="图层_2" data-name="图层 2"><g id="图层_1-2" data-name="图层 1"><path class="cls-1" d="M172.9,109.22c-24.69-21.6-51.63-12.75-69.09,0-12.68,9.27-27.1,20.8-60,13-9.54-2.26-24.43-6.57-40.76-11.55.84,54.13,47.55,97.77,105.1,97.77,55.93,0,101.65-41.24,104.92-93.26C203.27,120.25,190.57,124.69,172.9,109.22Z"/><path class="cls-2" d="M177.34,26.54a3.1,3.1,0,0,1,2.17,5.81c-1.54.58-5.63.08-6.11-1S175.8,27.11,177.34,26.54Z"/><path class="cls-2" d="M163.09,47.51a4.24,4.24,0,0,1-7.37,4.17c-1.08-1.92-1.23-7.43.16-8.32S162,45.6,163.09,47.51Z"/><path class="cls-2" d="M178.35,78.41a5.39,5.39,0,0,1-10.15-3.58c.94-2.66,6.13-7.48,8.14-6.9C178.52,68.57,179.29,75.75,178.35,78.41Z"/><path class="cls-1" d="M156.81,8.73C149.51,6.6,142.62,7,138.08,9l-.47-.49c-9.29-9.64-47.92-6-64.13,5.71l-.24-.4c-3-5.17-8-7.56-13.39-8.1a30.63,30.63,0,0,0,.71,29.72C50.06,62.27,55.16,80.72,69.87,84c0,5,1.62,8.93,4.54,9.71,3.73,1,8.24-3.46,10.62-10.2h.1a51.43,51.43,0,0,1,2.11-6.69,88.72,88.72,0,0,1,5.12-11.4c.08-.43.17-.85.25-1.28,5.31.09,9.41-3.35,13-7.84a14.1,14.1,0,0,0,2.65-5,23,23,0,0,1-7.46-1.48A14.13,14.13,0,0,1,98,48.41c9.07-17.65,25.39-28.25,41-29.31a36.57,36.57,0,0,1,4.37,3.55,59,59,0,0,1,4.43,4.59A9.74,9.74,0,0,1,148,22.5c2.22-7.39,13.16-10.65,24.57-7.39C169.07,12.84,163.78,10.77,156.81,8.73Z"/></g></g></svg>