<svg xmlns="http://www.w3.org/2000/svg" viewBox="0 0 285.42 380.02"><defs><style>.cls-1{fill:#fff;}</style></defs><title>资源 11</title><g id="图层_2" data-name="图层 2"><g id="图层_1-2" data-name="图层 1"><path class="cls-1" d="M285.41,242.45c-1-74.88-86-246.63-146-242.37C83.92,4-1,171.47,0,246.36S65.75,381.08,144.57,380,286.43,317.34,285.41,242.45ZM215,126.28c.9-2.31,8.8-2.46,11.62-1.19a5.9,5.9,0,0,1-4.87,10.72C218.89,134.54,214.14,128.42,215,126.28ZM203.91,82.67A5.12,5.12,0,0,1,209,91.55c-2.33,1.34-9.06,1.59-10.15-.08S201.58,84,203.91,82.67ZM193.9,156c1.36-3.86,8.88-10.84,11.8-10,3.16.91,4.28,11.33,2.91,15.19A7.81,7.81,0,0,1,193.9,156Zm-133-46.76c7-.1,13.94,2.26,18.67,8.53l.38.49c19.36-17.68,69.14-28.3,82.7-17.14l.69.56c5.61-3.29,14.53-4.87,24.36-3.19,9.39,1.6,16.61,3.49,21.47,5.93-15.37-2.53-29.13,3.38-30.91,13.34a12.76,12.76,0,0,0,.5,6.21,77.74,77.74,0,0,0-6.47-5.31,48.5,48.5,0,0,0-6.24-4c-20.12,3.74-39.78,20-48.93,44.39a18.28,18.28,0,0,0,3.79,1.38,30,30,0,0,0,9.95.81,18.57,18.57,0,0,1-2.7,6.89c-4,6.38-8.81,11.49-15.74,12.17,0,.57-.09,1.15-.13,1.71a117.3,117.3,0,0,0-5,15.64,68.93,68.93,0,0,0-1.73,9l-.14,0c-2.08,9.15-7.27,15.65-12.29,14.91-3.93-.58-6.67-5.42-7.38-12-19.66-2-29.1-25.26-19.48-61.8A40.22,40.22,0,0,1,60.92,109.2Zm81.89,254c-71.53,0-129.61-56.54-130.64-126.66,20.29,6.45,38.8,12,50.67,15,40.88,10.08,59.24-4.26,74.57-16.86s57.76-22.14,85.89,0c23.3,18.33,37.75,14.28,49.95,7.74C269.18,309.79,212.35,363.21,142.81,363.21Z"/></g></g></svg>